<svg xmlns="http://www.w3.org/2000/svg" width="13.422" height="14.552" viewBox="0 0 13.422 14.552"><defs><style>.a{fill:#1d1d1b;}</style></defs><g transform="translate(-3885.502 -454.992)"><path class="a" d="M3886.227,462.263a5.992,5.992,0,0,1,5.986-5.986,5.918,5.918,0,0,1,3.1.864l-1.183.316a.362.362,0,0,0,.094.712.371.371,0,0,0,.093-.012l1.935-.517.007,0,.02-.007.015-.005.018-.008.014-.007.017-.009.014-.009.015-.01.014-.011.013-.011.014-.014.011-.011.014-.015.005-.006,0-.007.011-.016.009-.014,0-.007,0-.008.009-.017.006-.014.007-.019,0-.014.006-.019,0-.016,0-.017,0-.019v-.07l0-.017,0-.017,0-.02,0-.008-.517-1.935a.363.363,0,0,0-.7.187l.267,1a6.711,6.711,0,0,0-8.6,9.991.363.363,0,1,0,.568-.451A5.925,5.925,0,0,1,3886.227,462.263Z"/><path class="a" d="M3898.538,460.016a6.694,6.694,0,0,0-1.068-1.924.363.363,0,1,0-.568.451,5.917,5.917,0,0,1,1.3,3.72,5.992,5.992,0,0,1-5.986,5.986,5.921,5.921,0,0,1-3.089-.856l1.171-.313a.363.363,0,1,0-.187-.7l-1.853.5a.36.36,0,0,0-.35.354v.019a.326.326,0,0,0,.012.092l.517,1.935a.362.362,0,0,0,.35.269.385.385,0,0,0,.094-.012.362.362,0,0,0,.256-.444l-.269-1.007a6.714,6.714,0,0,0,9.673-8.065Z"/><path class="a" d="M3889.687,463.593a.372.372,0,0,1-.277.1.359.359,0,0,1-.2-.047.3.3,0,0,1-.118-.149.839.839,0,0,1-.049-.267h-.78a1.659,1.659,0,0,0,.14.692.835.835,0,0,0,.392.393l.259.126h.4a1.324,1.324,0,0,0,.61-.129.888.888,0,0,0,.384-.371,1.205,1.205,0,0,0,.132-.585v-.387a.873.873,0,0,0-.148-.516.731.731,0,0,0-.415-.281.88.88,0,0,0,.363-.293.709.709,0,0,0,.129-.417v-.348a1.007,1.007,0,0,0-.274-.757,1.064,1.064,0,0,0-.775-.267,1.289,1.289,0,0,0-.613.131.856.856,0,0,0-.372.4,1.782,1.782,0,0,0-.141.709h.78a1.008,1.008,0,0,1,.048-.284.346.346,0,0,1,.107-.16.275.275,0,0,1,.17-.051.256.256,0,0,1,.2.082.342.342,0,0,1,.072.232v.3a.436.436,0,0,1-.069.261.229.229,0,0,1-.2.093h-.293v.742h.293a.3.3,0,0,1,.248.106.457.457,0,0,1,.086.3v.354A.389.389,0,0,1,3889.687,463.593Z"/><path class="a" d="M3892.151,460.133l-.768,1.751c-.012.025-.023.052-.035.08s-.023.055-.032.081a3.229,3.229,0,0,0-.151.486,2.166,2.166,0,0,0-.052.481v.282a1.356,1.356,0,0,0,.131.62.888.888,0,0,0,.381.39,1.422,1.422,0,0,0,1.205,0,.892.892,0,0,0,.382-.394,1.359,1.359,0,0,0,.132-.623v-.317a1.4,1.4,0,0,0-.115-.6.843.843,0,0,0-.335-.378,1,1,0,0,0-.523-.131.6.6,0,0,0-.142.016l.761-1.746Zm.342,2.576a.459.459,0,0,1,.095.309v.3a.41.41,0,0,1-.092.287.347.347,0,0,1-.269.1.34.34,0,0,1-.263-.1.4.4,0,0,1-.094-.287v-.3a.476.476,0,0,1,.092-.309.325.325,0,0,1,.265-.113A.334.334,0,0,1,3892.493,462.709Z"/><path class="a" d="M3894.193,460.38a1.117,1.117,0,0,0-.292.823v2.117a1.131,1.131,0,1,0,2.258,0V461.2a1.115,1.115,0,0,0-.292-.825,1.342,1.342,0,0,0-1.674,0Zm1.111.573a.576.576,0,0,1,.093.35v1.917a.574.574,0,0,1-.093.352.366.366,0,0,1-.548,0,.574.574,0,0,1-.092-.352V461.3a.584.584,0,0,1,.091-.35.364.364,0,0,1,.549,0Z"/></g></svg>