<svg xmlns="http://www.w3.org/2000/svg" width="55.998" height="37.258" viewBox="0 0 55.998 37.258"><g transform="translate(-3911.235 -45.371)"><path d="M3966.955,75.644h-2.443a1.636,1.636,0,0,0-.355-.851,1.838,1.838,0,0,0-1.323-.4,1.973,1.973,0,0,0-1.263.3.783.783,0,0,0-.27.623c0,.37.515.666,1.533.893a24.33,24.33,0,0,1,2.512.649c.135.05.252.093.337.134a2.361,2.361,0,0,1,1.55,2.225,2.818,2.818,0,0,1-1.508,2.654c-.127.068-.244.127-.379.186a5.712,5.712,0,0,1-2.258.421,6.2,6.2,0,0,1-3.084-.674,2.923,2.923,0,0,1-1.107-1.081,3.046,3.046,0,0,1-.368-1.523h2.561a1.213,1.213,0,0,0,.472,1.02,2.631,2.631,0,0,0,1.593.371,1.92,1.92,0,0,0,1.264-.354.792.792,0,0,0,.32-.624c0-.4-.505-.707-1.508-.926a16.412,16.412,0,0,1-2.831-.768,2.348,2.348,0,0,1-1.533-2.25,2.94,2.94,0,0,1,.8-2.1,3.965,3.965,0,0,1,3.025-1.07,6.317,6.317,0,0,1,2.654.472.9.9,0,0,1,.16.084,2.679,2.679,0,0,1,1.085,1.037A3.093,3.093,0,0,1,3966.955,75.644Z"/><path d="M3965.649,69.679a.2.2,0,0,0-.034-.127.181.181,0,0,0-.109-.083.954.954,0,0,0-.16-.026h-.388v.472h.388a.353.353,0,0,0,.227-.068A.21.21,0,0,0,3965.649,69.679Zm.2-.253a.372.372,0,0,1,.075.227.412.412,0,0,1-.126.3.489.489,0,0,1-.328.144.427.427,0,0,1,.134.084l.236.312.185.311h-.3l-.144-.252a1.436,1.436,0,0,0-.235-.337.11.11,0,0,0-.034-.025l-.2-.059h-.152v.673h-.253V69.224h.548c.034,0,.068.008.093.008a.907.907,0,0,1,.3.042A.37.37,0,0,1,3965.852,69.426Z"/><path d="M3966.568,70a1.224,1.224,0,0,0-.16-.615,1.192,1.192,0,0,0-.456-.455,1.3,1.3,0,0,0-.6-.16h-.008a1.3,1.3,0,0,0-.6.16,1.187,1.187,0,0,0-.456.455,1.2,1.2,0,0,0,0,1.222,1.147,1.147,0,0,0,.447.446,1.208,1.208,0,0,0,.607.161h.008a1.208,1.208,0,0,0,.607-.161,1.134,1.134,0,0,0,.447-.446A1.219,1.219,0,0,0,3966.568,70Zm.244,0a1.448,1.448,0,0,1-.194.725,1.278,1.278,0,0,1-.539.538,1.41,1.41,0,0,1-.725.195h-.008a1.4,1.4,0,0,1-.724-.195,1.268,1.268,0,0,1-.54-.538,1.438,1.438,0,0,1-.194-.725,1.46,1.46,0,0,1,.194-.742,1.355,1.355,0,0,1,.548-.539,1.6,1.6,0,0,1,.716-.193h.008a1.5,1.5,0,0,1,.716.193,1.3,1.3,0,0,1,.548.539A1.47,1.47,0,0,1,3966.812,70Z"/><path d="M3952.479,58.093,3959.4,69.62h-11.114l-6.606-11.013-5-8.333,5-3.008,3.151-1.9Z"/><path d="M3957.5,77.624v4.727h-2.3v-.522a4.927,4.927,0,0,1-2.7.8h-.026a5.005,5.005,0,0,1,0-10.01h.026a4.936,4.936,0,0,1,2.7.8v-.547h2.3Zm-2.3.523V77.1a2.757,2.757,0,0,0-2.7-2.225h-.026a2.752,2.752,0,0,0,0,5.5h.026A2.764,2.764,0,0,0,3955.2,78.147Z"/><path d="M3946.7,77.624v4.727h-2.3v-.522a4.947,4.947,0,0,1-2.7.8h-.025a5.005,5.005,0,0,1,0-10.01h.025a4.956,4.956,0,0,1,2.7.8v-3.8h2.3Zm-2.3.523V77.1a2.756,2.756,0,0,0-2.7-2.225h-.025a2.752,2.752,0,0,0,0,5.5h.025A2.763,2.763,0,0,0,3944.4,78.147Z"/><path d="M3941.678,65.086l2.713,4.534h-11.106l-6.167-10.263-.269-.447.269-.16,7.9-4.753Z"/><rect width="2.502" height="9.732" transform="translate(3933.294 72.619)"/><rect width="2.502" height="2.199" transform="translate(3933.294 69.67)"/><path d="M3932.147,77.624v4.727h-2.3v-.522a4.973,4.973,0,0,1-2.7.8h-.025a5.005,5.005,0,0,1,0-10.01h.025a4.981,4.981,0,0,1,2.7.8v-3.8h2.3Zm-2.3.523V77.1a2.759,2.759,0,0,0-2.7-2.225h-.025a2.752,2.752,0,0,0,0,5.5h.025A2.766,2.766,0,0,0,3929.848,78.147Z"/><path d="M3927.118,65.828l2.275,3.792h-11.114l-1.247-2.081,8.164-4.9Z"/><path d="M3921.236,77.624v4.727h-2.3v-.522a4.983,4.983,0,0,1-2.705.8h-.026a5.005,5.005,0,0,1,0-10.01h.026a4.991,4.991,0,0,1,2.705.8v-.547h2.3Zm-2.3.523V77.1a2.759,2.759,0,0,0-2.705-2.225h-.026a2.752,2.752,0,0,0,0,5.5h.026A2.766,2.766,0,0,0,3918.937,78.147Z"/></g></svg>