<svg xmlns="http://www.w3.org/2000/svg" width="27.411" height="22" viewBox="0 0 27.411 22"><path d="M4113.266,62.465a1.084,1.084,0,0,0-.878-.449h-4.89L4100.61,53.4l0,0-.044-.05-.031-.033c-.011-.011-.023-.021-.035-.032s-.032-.03-.049-.044l0,0-.024-.017c-.019-.015-.039-.03-.059-.043a.4.4,0,0,0-.035-.021c-.018-.011-.037-.023-.056-.033l-.045-.021a.532.532,0,0,0-.049-.022c-.018-.008-.036-.014-.054-.02l-.044-.015-.059-.015-.042-.01-.059-.009-.045-.006a.509.509,0,0,0-.055,0l-.05,0-.05,0a.518.518,0,0,0-.056,0l-.044.006-.06.009-.042.01-.059.015-.043.015c-.018.006-.037.012-.055.02a.508.508,0,0,0-.048.022l-.046.021c-.019.01-.037.022-.056.033l-.034.021c-.021.013-.041.028-.061.043l-.022.017,0,0a.622.622,0,0,0-.051.045l-.033.03c-.011.011-.021.023-.032.035s-.03.032-.043.049l0,0-6.889,8.611h-4.89a1.082,1.082,0,0,0-1.026,1.424l3.607,10.82a1.081,1.081,0,0,0,1.026.74h18.033a1.082,1.082,0,0,0,1.027-.74l3.607-10.82A1.084,1.084,0,0,0,4113.266,62.465Zm-13.5-6.652,4.962,6.2H4094.8ZM4108,72.836h-16.474l-2.885-8.656h22.244Z" transform="translate(-4086.059 -53)"/></svg>