<svg xmlns="http://www.w3.org/2000/svg" width="18.375" height="18.375" viewBox="0 0 18.375 18.375"><defs><style>.a{fill:#3c3c3b;}</style></defs><g transform="translate(-188.425 -599.158)"><path class="a" d="M7037.935,607.158h-6a1.314,1.314,0,0,0-1.312,1.313v6a1.314,1.314,0,0,0,1.312,1.312h6a1.314,1.314,0,0,0,1.313-1.312v-6A1.314,1.314,0,0,0,7037.935,607.158Zm.188,1.313v6a.188.188,0,0,1-.188.187h-6a.187.187,0,0,1-.187-.187v-6a.188.188,0,0,1,.187-.188h6A.188.188,0,0,1,7038.123,608.471Z" transform="translate(-6842.199 -8)"/><path class="a" d="M7047.685,607.158h-6a1.314,1.314,0,0,0-1.312,1.313v6a1.314,1.314,0,0,0,1.312,1.312h6a1.314,1.314,0,0,0,1.313-1.312v-6A1.314,1.314,0,0,0,7047.685,607.158Zm.188,1.313v6a.188.188,0,0,1-.188.187h-6a.187.187,0,0,1-.187-.187v-6a.188.188,0,0,1,.187-.188h6A.188.188,0,0,1,7047.873,608.471Z" transform="translate(-6842.199 -8)"/><path class="a" d="M7037.935,616.908h-6a1.314,1.314,0,0,0-1.312,1.313v6a1.314,1.314,0,0,0,1.312,1.312h6a1.314,1.314,0,0,0,1.313-1.312v-6A1.314,1.314,0,0,0,7037.935,616.908Zm.188,1.313v6a.188.188,0,0,1-.188.187h-6a.187.187,0,0,1-.187-.187v-6a.188.188,0,0,1,.187-.188h6A.188.188,0,0,1,7038.123,618.221Z" transform="translate(-6842.199 -8)"/><path class="a" d="M7047.685,616.908h-6a1.314,1.314,0,0,0-1.312,1.313v6a1.314,1.314,0,0,0,1.312,1.312h6a1.314,1.314,0,0,0,1.313-1.312v-6A1.314,1.314,0,0,0,7047.685,616.908Zm.188,1.313v6a.188.188,0,0,1-.188.187h-6a.187.187,0,0,1-.187-.187v-6a.188.188,0,0,1,.187-.188h6A.188.188,0,0,1,7047.873,618.221Z" transform="translate(-6842.199 -8)"/></g></svg>