<svg xmlns="http://www.w3.org/2000/svg" width="18.186" height="18.187" viewBox="0 0 18.186 18.187"><defs><style>.a{fill:#3c3c3b;}</style></defs><path class="a" d="M6890.6,607.765a1.75,1.75,0,0,0-2.476,0l-7.347,7.346a1.753,1.753,0,0,0,0,2.472,1.735,1.735,0,0,0,1.156.511c.021,0,.04,0,.061,0h.2v5.309a2.035,2.035,0,0,0,2.033,2.033h2.873a.622.622,0,0,0,.621-.621v-4.236a.792.792,0,0,1,.791-.791h1.695a.792.792,0,0,1,.791.791v4.236a.622.622,0,0,0,.621.621h2.873a2.035,2.035,0,0,0,2.033-2.033V618.1h.178a1.752,1.752,0,0,0,1.239-2.989Zm4.685,9.711v5.93a.792.792,0,0,1-.791.791h-2.252v-3.615a2.035,2.035,0,0,0-2.033-2.033h-1.695a2.035,2.035,0,0,0-2.033,2.033V624.2h-2.252a.792.792,0,0,1-.791-.791v-5.93a.622.622,0,0,0-.621-.622h-.808a.509.509,0,0,1-.376-.841h.054v-.056l7.316-7.314a.52.52,0,0,1,.718,0l7.344,7.343a.509.509,0,0,1-.36.868h-.8A.622.622,0,0,0,6895.288,617.476Z" transform="translate(-6880.272 -607.252)"/></svg>