<svg xmlns="http://www.w3.org/2000/svg" width="40" height="26.614" viewBox="0 0 40 26.614"><defs><style>.a{fill:#fff;}</style></defs><g transform="translate(-3889.562 -1698.865)"><path class="a" d="M3929.363,1720.49h-1.745a1.161,1.161,0,0,0-.253-.608,1.311,1.311,0,0,0-.945-.283,1.407,1.407,0,0,0-.9.217.557.557,0,0,0-.193.445c0,.264.367.475,1.095.638a17.327,17.327,0,0,1,1.794.463c.1.036.18.066.241.1a1.687,1.687,0,0,1,1.107,1.59,2.014,2.014,0,0,1-1.077,1.9c-.091.049-.175.091-.271.133a4.076,4.076,0,0,1-1.613.3,4.427,4.427,0,0,1-2.2-.482,2.081,2.081,0,0,1-.79-.772,2.163,2.163,0,0,1-.263-1.087h1.829a.867.867,0,0,0,.337.728,1.879,1.879,0,0,0,1.138.265,1.374,1.374,0,0,0,.9-.253.563.563,0,0,0,.228-.446c0-.282-.36-.505-1.077-.661a11.692,11.692,0,0,1-2.022-.549,1.676,1.676,0,0,1-1.095-1.607,2.1,2.1,0,0,1,.571-1.5,2.835,2.835,0,0,1,2.161-.764,4.512,4.512,0,0,1,1.9.337.667.667,0,0,1,.115.06,1.913,1.913,0,0,1,.774.741A2.207,2.207,0,0,1,3929.363,1720.49Z"/><path class="a" d="M3928.43,1716.229a.14.14,0,0,0-.024-.091.134.134,0,0,0-.077-.06.983.983,0,0,0-.115-.018h-.277v.337h.277a.259.259,0,0,0,.162-.048A.15.15,0,0,0,3928.43,1716.229Zm.145-.181a.262.262,0,0,1,.054.162.3.3,0,0,1-.09.217.348.348,0,0,1-.235.1.327.327,0,0,1,.1.06l.168.223.132.223h-.217l-.1-.181a1.036,1.036,0,0,0-.168-.24.087.087,0,0,0-.024-.019l-.144-.041h-.109v.481h-.181V1715.9h.391c.025,0,.049.006.067.006a.638.638,0,0,1,.216.03A.262.262,0,0,1,3928.575,1716.048Z"/><path class="a" d="M3929.087,1716.457a.872.872,0,0,0-.115-.439.833.833,0,0,0-.325-.325.93.93,0,0,0-.428-.115h0a.926.926,0,0,0-.427.115.842.842,0,0,0-.326.325.855.855,0,0,0,0,.873.814.814,0,0,0,.319.318.861.861,0,0,0,.434.115h0a.865.865,0,0,0,.435-.115.8.8,0,0,0,.318-.318A.869.869,0,0,0,3929.087,1716.457Zm.174,0a1.022,1.022,0,0,1-.139.518.909.909,0,0,1-.384.385,1.009,1.009,0,0,1-.519.139h0a1.008,1.008,0,0,1-.518-.139.91.91,0,0,1-.385-.385,1.03,1.03,0,0,1-.138-.518,1.045,1.045,0,0,1,.138-.53.972.972,0,0,1,.391-.385,1.15,1.15,0,0,1,.512-.138h0a1.072,1.072,0,0,1,.512.138.927.927,0,0,1,.391.385A1.036,1.036,0,0,1,3929.261,1716.457Z"/><path class="a" d="M3919.023,1707.953l4.942,8.234h-7.939l-4.719-7.867-3.575-5.952,3.575-2.149,2.25-1.354Z"/><path class="a" d="M3922.611,1721.9v3.376h-1.644v-.373a3.519,3.519,0,0,1-1.926.572h-.018a3.575,3.575,0,0,1,0-7.15h.018a3.526,3.526,0,0,1,1.926.571v-.391h1.644Zm-1.644.373v-.746a1.968,1.968,0,0,0-1.926-1.589h-.018a1.965,1.965,0,0,0,0,3.93h.018A1.973,1.973,0,0,0,3920.967,1722.277Z"/><path class="a" d="M3914.894,1721.9v3.376h-1.642v-.373a3.535,3.535,0,0,1-1.927.572h-.017a3.575,3.575,0,0,1,0-7.15h.017a3.542,3.542,0,0,1,1.927.571v-2.713h1.642Zm-1.642.373v-.746a1.97,1.97,0,0,0-1.927-1.589h-.017a1.965,1.965,0,0,0,0,3.93h.017A1.975,1.975,0,0,0,3913.252,1722.277Z"/><path class="a" d="M3911.308,1712.948l1.938,3.239h-7.933l-4.405-7.331-.192-.319.192-.114,5.639-3.4Z"/><rect class="a" width="1.787" height="6.952" transform="translate(3905.319 1718.329)"/><rect class="a" width="1.787" height="1.571" transform="translate(3905.319 1716.222)"/><path class="a" d="M3904.5,1721.9v3.376h-1.643v-.373a3.548,3.548,0,0,1-1.932.572h-.018a3.575,3.575,0,0,1,0-7.15h.018a3.555,3.555,0,0,1,1.932.571v-2.713h1.643Zm-1.643.373v-.746a1.969,1.969,0,0,0-1.932-1.589h-.018a1.965,1.965,0,0,0,0,3.93h.018A1.975,1.975,0,0,0,3902.857,1722.277Z"/><path class="a" d="M3900.907,1713.478l1.625,2.709h-7.938l-.891-1.487,5.832-3.5Z"/><path class="a" d="M3896.706,1721.9v3.376h-1.643v-.373a3.554,3.554,0,0,1-1.932.572h-.018a3.575,3.575,0,0,1,0-7.15h.018a3.561,3.561,0,0,1,1.932.571v-.391h1.643Zm-1.643.373v-.746a1.97,1.97,0,0,0-1.932-1.589h-.018a1.965,1.965,0,0,0,0,3.93h.018A1.975,1.975,0,0,0,3895.063,1722.277Z"/></g></svg>