<svg xmlns="http://www.w3.org/2000/svg" width="100" height="66.536" viewBox="0 0 100 66.536"><defs><style>.a{fill:#fff;}</style></defs><g transform="translate(-2590.132 -3716.445)"><path class="a" d="M2689.635,3770.507h-4.363a2.922,2.922,0,0,0-.633-1.519,3.28,3.28,0,0,0-2.363-.708,3.522,3.522,0,0,0-2.255.542,1.4,1.4,0,0,0-.483,1.113c0,.661.919,1.189,2.738,1.595a43.288,43.288,0,0,1,4.485,1.158c.241.091.451.166.6.241a4.215,4.215,0,0,1,2.769,3.973,5.034,5.034,0,0,1-2.694,4.739c-.226.122-.436.226-.677.332a10.184,10.184,0,0,1-4.032.752,11.058,11.058,0,0,1-5.507-1.205,5.188,5.188,0,0,1-1.976-1.929,5.421,5.421,0,0,1-.658-2.719h4.574a2.16,2.16,0,0,0,.843,1.82,4.7,4.7,0,0,0,2.843.664,3.429,3.429,0,0,0,2.258-.633,1.409,1.409,0,0,0,.571-1.114c0-.707-.9-1.263-2.693-1.655a29.272,29.272,0,0,1-5.055-1.37,4.193,4.193,0,0,1-2.738-4.018,5.249,5.249,0,0,1,1.429-3.745,7.079,7.079,0,0,1,5.4-1.912,11.3,11.3,0,0,1,4.739.843,1.717,1.717,0,0,1,.287.152,4.767,4.767,0,0,1,1.937,1.851A5.523,5.523,0,0,1,2689.635,3770.507Z"/><path class="a" d="M2687.3,3759.854a.358.358,0,0,0-.06-.226.321.321,0,0,0-.194-.149,2.106,2.106,0,0,0-.287-.047h-.692v.843h.692a.642.642,0,0,0,.406-.12A.379.379,0,0,0,2687.3,3759.854Zm.362-.452a.657.657,0,0,1,.135.406.734.734,0,0,1-.226.542.871.871,0,0,1-.586.256.747.747,0,0,1,.241.15l.42.558.331.555h-.541l-.257-.451a2.564,2.564,0,0,0-.42-.6.2.2,0,0,0-.061-.045l-.359-.1h-.272v1.2h-.452v-2.827h.978c.061,0,.121.014.166.014a1.627,1.627,0,0,1,.541.075A.655.655,0,0,1,2687.664,3759.4Z"/><path class="a" d="M2688.944,3760.426a2.187,2.187,0,0,0-.287-1.1,2.122,2.122,0,0,0-.813-.812,2.326,2.326,0,0,0-1.069-.286h-.014a2.314,2.314,0,0,0-1.067.286,2.1,2.1,0,0,0-.814.812,2.137,2.137,0,0,0,0,2.183,2.033,2.033,0,0,0,.8.8,2.162,2.162,0,0,0,1.084.287h.014a2.164,2.164,0,0,0,1.085-.287,2.018,2.018,0,0,0,.8-.8A2.177,2.177,0,0,0,2688.944,3760.426Zm.436,0a2.569,2.569,0,0,1-.348,1.294,2.275,2.275,0,0,1-.961.962,2.527,2.527,0,0,1-1.3.347h-.014a2.514,2.514,0,0,1-1.293-.347,2.29,2.29,0,0,1-.965-.962,2.575,2.575,0,0,1-.345-1.294,2.61,2.61,0,0,1,.345-1.325,2.418,2.418,0,0,1,.979-.962,2.833,2.833,0,0,1,1.279-.346h.014a2.671,2.671,0,0,1,1.279.346,2.3,2.3,0,0,1,.978.962A2.6,2.6,0,0,1,2689.38,3760.426Z"/><path class="a" d="M2663.784,3739.165l12.354,20.584h-19.846l-11.8-19.667-8.937-14.881,8.937-5.372,5.627-3.385Z"/><path class="a" d="M2672.753,3774.042v8.442h-4.109v-.933a8.787,8.787,0,0,1-4.814,1.43h-.046a8.938,8.938,0,0,1,0-17.876h.046a8.8,8.8,0,0,1,4.814,1.429v-.978h4.109Zm-4.109.934v-1.866a4.921,4.921,0,0,0-4.814-3.973h-.046a4.913,4.913,0,0,0,0,9.826h.046A4.934,4.934,0,0,0,2668.644,3774.976Z"/><path class="a" d="M2653.462,3774.042v8.442h-4.106v-.933a8.831,8.831,0,0,1-4.816,1.43h-.045a8.938,8.938,0,0,1,0-17.876h.045a8.849,8.849,0,0,1,4.816,1.429v-6.785h4.106Zm-4.106.934v-1.866a4.925,4.925,0,0,0-4.816-3.973h-.045a4.913,4.913,0,0,0,0,9.826h.045A4.937,4.937,0,0,0,2649.356,3774.976Z"/><path class="a" d="M2644.5,3751.653l4.844,8.1h-19.832l-11.013-18.327-.481-.8.481-.285,14.1-8.488Z"/><rect class="a" width="4.468" height="17.379" transform="translate(2629.523 3765.105)"/><rect class="a" width="4.468" height="3.927" transform="translate(2629.523 3759.838)"/><path class="a" d="M2627.476,3774.042v8.442h-4.107v-.933a8.868,8.868,0,0,1-4.83,1.43h-.044a8.938,8.938,0,0,1,0-17.876h.044a8.886,8.886,0,0,1,4.83,1.429v-6.785h4.107Zm-4.107.934v-1.866a4.925,4.925,0,0,0-4.83-3.973h-.044a4.913,4.913,0,0,0,0,9.826h.044A4.938,4.938,0,0,0,2623.369,3774.976Z"/><path class="a" d="M2618.495,3752.977l4.062,6.772h-19.846l-2.227-3.717,14.58-8.757Z"/><path class="a" d="M2607.992,3774.042v8.442h-4.107v-.933a8.884,8.884,0,0,1-4.83,1.43h-.047a8.938,8.938,0,0,1,0-17.876h.047a8.9,8.9,0,0,1,4.83,1.429v-.978h4.107Zm-4.107.934v-1.866a4.927,4.927,0,0,0-4.83-3.973h-.047a4.913,4.913,0,0,0,0,9.826h.047A4.94,4.94,0,0,0,2603.885,3774.976Z"/></g></svg>