<svg xmlns="http://www.w3.org/2000/svg" width="124.17" height="32" viewBox="0 0 124.17 32"><defs><style>.a{fill:#3c3c3b;}</style></defs><g transform="translate(-6858.199 -48)"><path class="a" d="M6898.04,58.624a3.026,3.026,0,0,1,2.119-.5,4.856,4.856,0,0,1,2.623,1.143l.3.29,2.439-2.832-.341-.257a9.41,9.41,0,0,0-5.344-1.645c-3.306,0-5.966,2.029-6.187,4.718-.237,2.89,2.414,3.772,4.545,4.481l.169.056c1.542.5,2.629.918,2.561,1.747-.063.771-1.059,1.274-2.418,1.225a5.716,5.716,0,0,1-3.769-1.491l-.312-.409-2.279,2.863.238.252a9.066,9.066,0,0,0,6.067,2.145c3.526,0,6.252-2.044,6.483-4.86.259-3.154-2.53-4.02-4.564-4.651l-.127-.041c-1.629-.517-2.613-.887-2.55-1.649a.849.849,0,0,1,.342-.586"/><path class="a" d="M6915.822,54.824a6.856,6.856,0,0,0-4.053,1.324l.669-8.148h-3.959l-1.817,22.126h3.959l.724-8.812a3.327,3.327,0,0,1,3.338-2.9,2.7,2.7,0,0,1,2.024.8,2.379,2.379,0,0,1,.592,1.863l-.743,9.048h3.988l.768-9.352a5.228,5.228,0,0,0-5.49-5.95"/><path class="a" d="M6930.579,66.348a1.664,1.664,0,0,1-1.332.561,1.271,1.271,0,0,1-.974-.336,1.772,1.772,0,0,1-.3-1.364l.565-6.883h4.009l.264-3.217h-4.038l.4-4.834h-3.959l-.285,3.47a1.492,1.492,0,0,1-1.477,1.364h-.369l-.264,3.217h1.734l-.56,6.818a4.844,4.844,0,0,0,1.144,3.79,5,5,0,0,0,3.805,1.477,5.311,5.311,0,0,0,3.763-1.362l.254-.243-2.046-2.8Z"/><path class="a" d="M6872.44,55.112,6872.123,58a5.168,5.168,0,0,1-5,4.51A3.97,3.97,0,0,1,6863.1,58l.317-2.892h-3.927L6859.175,58a7.418,7.418,0,0,0,7.513,8.437,9.137,9.137,0,0,0,4.653-1.308l-.143,1.308a5.168,5.168,0,0,1-5.005,4.51,3.969,3.969,0,0,1-4.016-4.51h-3.927a7.418,7.418,0,0,0,7.513,8.438,9.655,9.655,0,0,0,9.362-8.438l1.242-11.329Z"/><path class="a" d="M6863.933,76.152a2.2,2.2,0,0,0-2.135,1.924A1.692,1.692,0,0,0,6863.511,80a2.2,2.2,0,0,0,2.135-1.924,1.69,1.69,0,0,0-1.713-1.924"/><path class="a" d="M6869.224,76.152a2.2,2.2,0,0,0-2.135,1.924A1.692,1.692,0,0,0,6868.8,80a2.2,2.2,0,0,0,2.135-1.924,1.69,1.69,0,0,0-1.713-1.924"/><path class="a" d="M6974.7,58a5.169,5.169,0,0,1-5,4.51A3.969,3.969,0,0,1,6965.679,58l.316-2.891h-3.927L6961.751,58a7.418,7.418,0,0,0,7.513,8.438,9.142,9.142,0,0,0,4.654-1.308l-.143,1.308a5.168,5.168,0,0,1-5,4.51,3.969,3.969,0,0,1-4.016-4.51h-3.927a7.417,7.417,0,0,0,7.513,8.438,9.657,9.657,0,0,0,9.362-8.438l.264-2.407.977-8.922h-3.927Z"/><path class="a" d="M6979.784,55.112l-.024.209h.362L6980,56.371h.252l.124-1.051h.362l.024-.209Z"/><path class="a" d="M6982.111,55.112l-.548.628-.392-.617-.007-.01h-.255l-.148,1.259h.254l.106-.9.4.648.554-.644-.106.9h.252l.148-1.259Z"/><path class="a" d="M6881.568,60.795a3.432,3.432,0,0,1,3.42-2.469,2.543,2.543,0,0,1,2.79,2.469Zm3.585-5.971c-4.3,0-7.449,3.13-7.831,7.789a7.572,7.572,0,0,0,1.685,5.843,6.485,6.485,0,0,0,4.932,1.955,7.369,7.369,0,0,0,6.5-3.586l-2.71-2.017c-1.286,1.759-2.144,2.072-3.456,2.072a2.816,2.816,0,0,1-3.111-2.867h9.942l.082-.292a4.97,4.97,0,0,0,.143-.957,7.881,7.881,0,0,0-1.669-6.143,5.935,5.935,0,0,0-4.511-1.8"/><path class="a" d="M6938.114,60.795a3.431,3.431,0,0,1,3.42-2.469,2.544,2.544,0,0,1,2.79,2.469Zm3.585-5.971c-4.3,0-7.449,3.13-7.832,7.789a7.578,7.578,0,0,0,1.685,5.843,6.488,6.488,0,0,0,4.933,1.955,7.371,7.371,0,0,0,6.5-3.586l-2.71-2.017c-1.286,1.759-2.144,2.072-3.456,2.072a2.816,2.816,0,0,1-3.111-2.867h9.942l.082-.292a5.009,5.009,0,0,0,.143-.957,7.885,7.885,0,0,0-1.669-6.143,5.935,5.935,0,0,0-4.511-1.8"/><path class="a" d="M6953.994,56.5l-.005-1.388h-3.64l-1.232,15.017h3.959l.656-7.988a3.966,3.966,0,0,1,3.69-3.727l.117,0a4.437,4.437,0,0,1,2.131.486l.368-3.78a6.73,6.73,0,0,0-2.217-.295,5.719,5.719,0,0,0-3.827,1.673"/></g></svg>