<svg xmlns="http://www.w3.org/2000/svg" width="32" height="15.152" viewBox="0 0 32 15.152"><defs><style>.a{fill:#2e2d2c;}.a,.b{fill-rule:evenodd;}.b{fill:#e25b25;}</style></defs><g transform="translate(-3965.474 -609.54)"><path class="a" d="M3970.062,619.966h-3.486a.415.415,0,0,0-.276.128l-.7.7a.481.481,0,0,0-.127.265V623.6a.417.417,0,0,0,.127.265l.7.7a.472.472,0,0,0,.276.127h3.486a.168.168,0,0,0,.17-.169v-.88a.168.168,0,0,0-.17-.169h-3.327v-2.268h3.338a.167.167,0,0,0,.169-.169v-.88a.182.182,0,0,0-.18-.191"/><path class="a" d="M3974.936,620.083a.5.5,0,0,0-.3-.127h-2.8a.473.473,0,0,0-.3.127l-.7.7a.509.509,0,0,0-.127.3v2.49a.47.47,0,0,0,.127.3l.7.7a.492.492,0,0,0,.3.117h2.8a.514.514,0,0,0,.3-.117l.7-.7a.509.509,0,0,0,.127-.3v-2.49a.472.472,0,0,0-.127-.3Zm-.434,3.37h-2.522v-2.268h2.511v2.268Z"/><path class="a" d="M3980.976,619.966h-.911a.168.168,0,0,0-.17.17v3.317h-2.246v-3.328a.167.167,0,0,0-.17-.169h-.911a.168.168,0,0,0-.17.169v3.434a.463.463,0,0,0,.128.3l.7.7a.5.5,0,0,0,.3.116h2.521a.521.521,0,0,0,.3-.116l.7-.7a.492.492,0,0,0,.116-.3v-3.434a.184.184,0,0,0-.18-.159"/><path class="a" d="M3985.363,623.135a.412.412,0,0,0,.159-.1l.7-.7a.5.5,0,0,0,.127-.3v-.964a.472.472,0,0,0-.127-.3l-.7-.7a.5.5,0,0,0-.3-.127h-3.3a.167.167,0,0,0-.17.169v4.387a.167.167,0,0,0,.17.17h.911a.167.167,0,0,0,.169-.17v-1.356h.922l.954,1.388a.387.387,0,0,0,.275.138h1.1c.1,0,.128-.064.075-.138Zm-2.342-1.939h2.066v.784h-2.066Z"/><path class="a" d="M3995.853,624.544l-.975-1.409a.407.407,0,0,0,.159-.1l.7-.7a.49.49,0,0,0,.117-.3v-.964a.521.521,0,0,0-.117-.3l-.7-.7a.5.5,0,0,0-.3-.127h-3.295a.167.167,0,0,0-.17.169v4.387a.168.168,0,0,0,.17.17h.911a.168.168,0,0,0,.17-.17v-1.356h.921l.954,1.388a.388.388,0,0,0,.276.138h1.1c.095,0,.137-.064.074-.138m-3.317-3.348h2.066v.784h-2.066Z"/><path class="a" d="M3990.544,619.966h-3.528a.168.168,0,0,0-.17.17v.89a.168.168,0,0,0,.17.17h1.133v2.257h-1.133a.167.167,0,0,0-.17.169v.89a.167.167,0,0,0,.17.17h3.528a.168.168,0,0,0,.17-.17v-.89a.167.167,0,0,0-.17-.169h-1.134v-2.268h1.134a.168.168,0,0,0,.17-.17v-.89a.16.16,0,0,0-.17-.159"/><path class="b" d="M3965.474,615.8a.716.716,0,0,0,.212.519l1.886,1.8a.807.807,0,0,0,.551.222h6a.368.368,0,0,0,.371-.371v-2.013a.375.375,0,0,0-.371-.371h-5.827v-3.306h5.838a.369.369,0,0,0,.371-.371v-2a.368.368,0,0,0-.371-.371h-6a.767.767,0,0,0-.551.222l-1.887,1.8a.741.741,0,0,0-.211.519V615.8Z"/><path class="a" d="M3997.124,618.356l.35.35v.921l-.35.35h-.922l-.349-.35v-.921l.349-.35Zm-.084,1.4.222-.223v-.742l-.222-.222h-.742l-.223.222v.742l.223.223Z"/><path class="a" d="M3997.04,619.49l-.149-.212a.034.034,0,0,0,.021-.011l.106-.106a.078.078,0,0,0,.022-.042v-.149a.082.082,0,0,0-.022-.042l-.106-.106a.073.073,0,0,0-.042-.021h-.5a.022.022,0,0,0-.021.021v.657a.022.022,0,0,0,.021.021h.138a.023.023,0,0,0,.021-.021v-.2h.138l.148.212a.057.057,0,0,0,.042.021h.17c.011,0,.011-.011.011-.021m-.509-.5h.307v.116h-.307Z"/></g></svg>